<?xml version="1.0" standalone="no"?>
<svg xmlns="http://www.w3.org/2000/svg" viewBox="0 0 1440 320">
    <path fill="#1e40af" fill-opacity="1"
        d="M0,0L26.7,16C53.3,32,107,64,160,80C213.3,96,267,96,320,90.7C373.3,85,427,75,480,101.3C533.3,128,587,192,640,208C693.3,224,747,192,800,186.7C853.3,181,907,203,960,224C1013.3,245,1067,267,1120,272C1173.3,277,1227,267,1280,234.7C1333.3,203,1387,149,1413,122.7L1440,96L1440,320L1413.3,320C1386.7,320,1333,320,1280,320C1226.7,320,1173,320,1120,320C1066.7,320,1013,320,960,320C906.7,320,853,320,800,320C746.7,320,693,320,640,320C586.7,320,533,320,480,320C426.7,320,373,320,320,320C266.7,320,213,320,160,320C106.7,320,53,320,27,320L0,320Z"></path>
</svg>